<?xml version="1.0" encoding="UTF-8"?>
<svg xmlns="http://www.w3.org/2000/svg" width="256" height="256" viewBox="0 0 256 256" role="img" aria-label="Black Confident Leader">
  <defs>
    <linearGradient id="bg" x1="0" y1="0" x2="1" y2="1">
      <stop offset="0%" stop-color="#3f0d0d"/>
      <stop offset="100%" stop-color="#ef4444"/>
    </linearGradient>
    <radialGradient id="shine" cx="0.22" cy="0.16" r="0.72">
      <stop offset="0%" stop-color="rgba(255,255,255,0.72)"/>
      <stop offset="100%" stop-color="rgba(255,255,255,0)"/>
    </radialGradient>
    <filter id="soft" x="-20%" y="-20%" width="140%" height="140%">
      <feDropShadow dx="0" dy="6" stdDeviation="6" flood-color="rgba(0,0,0,0.25)"/>
    </filter>
  </defs>

  <rect width="256" height="256" rx="64" fill="url(#bg)"/>
  <circle cx="72" cy="52" r="88" fill="url(#shine)"/>

  <ellipse cx="128" cy="206" rx="68" ry="34" fill="rgba(0,0,0,0.24)"/>
  <path d="M54 218c12-42 40-66 74-66s62 24 74 66" fill="#dc2626"/>

  <g filter="url(#soft)">
    <ellipse cx="128" cy="90" rx="58" ry="42" fill="#1b1210"/><path d="M84 104c14-18 30-28 44-28s30 10 44 28" fill="#231714"/>
    <ellipse cx="128" cy="130" rx="44" ry="50" fill="#95613F"/>
    <ellipse cx="112" cy="132" rx="4" ry="5" fill="#161616"/>
    <ellipse cx="144" cy="132" rx="4" ry="5" fill="#161616"/>
    <path d="M112 154c8 9 24 9 32 0" fill="none" stroke="#161616" stroke-width="4" stroke-linecap="round"/>
  </g>

  <path d="M98 184c8 10 18 14 30 14s22-4 30-14" fill="none" stroke="#fecaca" stroke-width="5" stroke-linecap="round" opacity="0.95"/>
  <path d="M102 170h52" stroke="#fecaca" stroke-width="4" stroke-linecap="round"/><path d="M110 176h36" stroke="#fecaca" stroke-width="3" stroke-linecap="round"/>
</svg>
