<?xml version="1.0" encoding="UTF-8"?>
<svg xmlns="http://www.w3.org/2000/svg" width="256" height="256" viewBox="0 0 256 256" role="img" aria-label="Black Chill Casual">
  <defs>
    <linearGradient id="bg" x1="0" y1="0" x2="1" y2="1">
      <stop offset="0%" stop-color="#0f766e"/>
      <stop offset="100%" stop-color="#2dd4bf"/>
    </linearGradient>
    <radialGradient id="shine" cx="0.22" cy="0.16" r="0.72">
      <stop offset="0%" stop-color="rgba(255,255,255,0.72)"/>
      <stop offset="100%" stop-color="rgba(255,255,255,0)"/>
    </radialGradient>
    <filter id="soft" x="-20%" y="-20%" width="140%" height="140%">
      <feDropShadow dx="0" dy="6" stdDeviation="6" flood-color="rgba(0,0,0,0.25)"/>
    </filter>
  </defs>

  <rect width="256" height="256" rx="64" fill="url(#bg)"/>
  <circle cx="72" cy="52" r="88" fill="url(#shine)"/>

  <ellipse cx="128" cy="206" rx="68" ry="34" fill="rgba(0,0,0,0.24)"/>
  <path d="M54 218c12-42 40-66 74-66s62 24 74 66" fill="#14b8a6"/>

  <g filter="url(#soft)">
    <path d="M70 98c8-22 26-44 58-44s54 20 58 44c-20-12-38-14-58-14s-38 2-58 14z" fill="#1d1612"/><path d="M72 96h112l-8 16H80z" fill="#fef3c7"/><path d="M72 98h112l-6 9H78z" fill="#1f2937"/>
    <ellipse cx="128" cy="130" rx="44" ry="50" fill="#8F5D3F"/>
    <ellipse cx="112" cy="132" rx="4" ry="5" fill="#161616"/>
    <ellipse cx="144" cy="132" rx="4" ry="5" fill="#161616"/>
    <path d="M112 154c8 9 24 9 32 0" fill="none" stroke="#161616" stroke-width="4" stroke-linecap="round"/>
  </g>

  <path d="M98 184c8 10 18 14 30 14s22-4 30-14" fill="none" stroke="#ccfbf1" stroke-width="5" stroke-linecap="round" opacity="0.95"/>
  <path d="M96 132h20M140 132h20" stroke="#ccfbf1" stroke-width="4" stroke-linecap="round"/><circle cx="126" cy="132" r="3" fill="#ccfbf1"/>
</svg>
