<?xml version="1.0" encoding="UTF-8"?>
<svg xmlns="http://www.w3.org/2000/svg" width="256" height="256" viewBox="0 0 256 256" role="img" aria-label="Black Braids Style">
  <defs>
    <linearGradient id="bg" x1="0" y1="0" x2="1" y2="1">
      <stop offset="0%" stop-color="#3b0764"/>
      <stop offset="100%" stop-color="#ec4899"/>
    </linearGradient>
    <radialGradient id="shine" cx="0.22" cy="0.16" r="0.72">
      <stop offset="0%" stop-color="rgba(255,255,255,0.72)"/>
      <stop offset="100%" stop-color="rgba(255,255,255,0)"/>
    </radialGradient>
    <filter id="soft" x="-20%" y="-20%" width="140%" height="140%">
      <feDropShadow dx="0" dy="6" stdDeviation="6" flood-color="rgba(0,0,0,0.25)"/>
    </filter>
  </defs>

  <rect width="256" height="256" rx="64" fill="url(#bg)"/>
  <circle cx="72" cy="52" r="88" fill="url(#shine)"/>

  <ellipse cx="128" cy="206" rx="68" ry="34" fill="rgba(0,0,0,0.24)"/>
  <path d="M54 218c12-42 40-66 74-66s62 24 74 66" fill="#db2777"/>

  <g filter="url(#soft)">
    <path d="M72 92c12-34 32-48 56-48s44 14 56 48" fill="#22151b"/><path d="M70 100c16-18 40-28 58-28s42 10 58 28" fill="#2a1a24"/><rect x="78" y="98" width="10" height="76" rx="5" fill="#22151b"/><rect x="92" y="92" width="10" height="82" rx="5" fill="#241620"/><rect x="154" y="92" width="10" height="82" rx="5" fill="#241620"/><rect x="168" y="98" width="10" height="76" rx="5" fill="#22151b"/>
    <ellipse cx="128" cy="130" rx="44" ry="50" fill="#996540"/>
    <ellipse cx="112" cy="132" rx="4" ry="5" fill="#161616"/>
    <ellipse cx="144" cy="132" rx="4" ry="5" fill="#161616"/>
    <path d="M112 154c8 9 24 9 32 0" fill="none" stroke="#161616" stroke-width="4" stroke-linecap="round"/>
  </g>

  <path d="M98 184c8 10 18 14 30 14s22-4 30-14" fill="none" stroke="#f9a8d4" stroke-width="5" stroke-linecap="round" opacity="0.95"/>
  <circle cx="76" cy="180" r="6" fill="#f9a8d4"/><circle cx="180" cy="180" r="6" fill="#f9a8d4"/>
</svg>
